<?xml version="1.0" encoding="iso-8859-1"?>
<!-- Generator: Adobe Illustrator 19.0.0, SVG Export Plug-In . SVG Version: 6.00 Build 0)  -->
<svg version="1.1" id="Layer_1" xmlns="http://www.w3.org/2000/svg" xmlns:xlink="http://www.w3.org/1999/xlink" x="0px" y="0px"
	 viewBox="0 0 512.001 512.001" style="enable-background:new 0 0 512.001 512.001;" xml:space="preserve">
	<g>
		<g>
			<path d="M503.916,247.916h-56.758c-1.952-46.663-20.7-89.073-50.337-121.304l8.457-8.456c8.681,6.316,19.099,9.726,30.041,9.726
				c13.676,0,26.533-5.326,36.204-14.997l38.109-38.109c1.981-1.981,2.795-4.847,2.151-7.573c-0.645-2.727-2.654-4.926-5.312-5.812
				l-33.322-11.107l25.703-25.703c3.157-3.157,3.157-8.276,0-11.432c-3.158-3.157-8.276-3.157-11.433,0l-25.702,25.703L450.611,5.529
				c-0.886-2.658-3.085-4.668-5.812-5.312c-2.728-0.645-5.592,0.169-7.574,2.151l-38.109,38.109
				c-9.671,9.671-14.996,22.528-14.996,36.203c0,10.942,3.409,21.361,9.725,30.042l-8.456,8.456
				c-32.231-29.637-74.641-48.385-121.304-50.336V8.085C264.084,3.62,260.466,0,256,0c-4.466,0-8.084,3.62-8.084,8.084v56.758
				c-99.076,4.143-178.93,83.998-183.074,183.074H8.084C3.619,247.916,0,251.536,0,256c0,4.465,3.619,8.084,8.084,8.084h56.758
				c4.143,99.076,83.998,178.932,183.074,183.074v56.758c0,4.465,3.619,8.084,8.084,8.084c4.466,0,8.084-3.62,8.084-8.084v-56.758
				c99.076-4.142,178.93-83.998,183.074-183.074h56.758c4.466,0,8.084-3.62,8.084-8.084C512,251.536,508.382,247.916,503.916,247.916
				z M460.369,63.066l28.583,9.528l-28.861,28.859c-6.616,6.616-15.414,10.26-24.77,10.26c-6.6,0-12.921-1.813-18.395-5.203
				L460.369,63.066z M410.549,51.911l28.86-28.86l9.526,28.583L405.49,95.078c-3.391-5.475-5.203-11.795-5.203-18.395
				C400.287,67.325,403.931,58.528,410.549,51.911z M264.085,81.027c42.211,1.929,80.577,18.865,109.865,45.591l-49.606,49.606
				c-16.47-14.129-37.349-23.259-60.26-25.01V81.027z M247.916,81.027v70.187c-51.518,3.938-92.766,45.184-96.703,96.702h-37.806
				c2.209-39.252,20.439-75.814,50.783-101.309c3.419-2.873,3.862-7.972,0.99-11.39c-2.873-3.419-7.973-3.862-11.389-0.988
				c-34.012,28.575-54.351,69.646-56.576,113.688H81.026C85.145,157.757,157.755,85.147,247.916,81.027z M247.916,430.974
				c-90.16-4.119-162.771-76.73-166.889-166.889h16.189c2.224,44.042,22.564,85.113,56.574,113.688
				c3.416,2.872,8.516,2.428,11.389-0.988c2.873-3.418,2.43-8.518-0.99-11.39c-30.344-25.494-48.574-62.058-50.783-101.309h37.806
				c3.938,51.518,45.185,92.766,96.703,96.702V430.974z M264.084,344.562v-13.109c0-4.465-3.618-8.084-8.084-8.084
				c-4.466,0-8.084,3.62-8.084,8.084v13.109c-42.599-3.854-76.623-37.878-80.478-80.478h13.109c4.466,0,8.084-3.62,8.084-8.084
				c0-4.465-3.618-8.084-8.084-8.084h-13.109c3.855-42.599,37.878-76.623,80.478-80.478v13.109c0,4.465,3.619,8.084,8.084,8.084
				c4.466,0,8.084-3.62,8.084-8.084v-13.109c18.463,1.671,35.309,9.006,48.793,20.253l-26.857,26.857
				c-8.44-6.13-18.815-9.746-30.02-9.746c-28.231,0-51.2,22.969-51.2,51.2s22.969,51.2,51.2,51.2s51.2-22.969,51.2-51.2
				c0-11.206-3.616-21.58-9.747-30.02l26.857-26.857c11.248,13.483,18.582,30.33,20.253,48.792h-13.109
				c-4.466,0-8.084,3.62-8.084,8.084c0,4.465,3.619,8.084,8.084,8.084h13.109C340.707,306.684,306.684,340.708,264.084,344.562z
				M250.283,261.718c3.158,3.157,8.276,3.157,11.433,0l24.095-24.096c3.308,5.346,5.219,11.644,5.219,18.38
				c0,19.316-15.715,35.032-35.032,35.032s-35.032-15.716-35.032-35.032s15.715-35.032,35.032-35.032
				c6.736,0,13.034,1.911,18.38,5.219l-24.096,24.096C247.127,253.442,247.127,258.56,250.283,261.718z M264.084,430.974v-70.187
				c51.518-3.938,92.766-45.184,96.703-96.702h70.186C426.855,354.244,354.245,426.855,264.084,430.974z M360.788,247.916
				c-1.752-22.91-10.881-43.789-25.01-60.26l49.606-49.606c26.725,29.289,43.662,67.655,45.591,109.865H360.788z"/>
		</g>
	</g>
	<g>
	</g>
	<g>
	</g>
	<g>
	</g>
	<g>
	</g>
	<g>
	</g>
	<g>
	</g>
	<g>
	</g>
	<g>
	</g>
	<g>
	</g>
	<g>
	</g>
	<g>
	</g>
	<g>
	</g>
	<g>
	</g>
	<g>
	</g>
	<g>
	</g>
</svg>
