<svg id="Layer_1" enable-background="new 0 0 66 66" height="512" viewBox="0 0 66 66" width="512" xmlns="http://www.w3.org/2000/svg">
    <g>
        <g>
            <path d="m65.6 22.1c.4-.3.5-1 .2-1.4s-1-.5-1.4-.2l-3 2.3c-.3.3-.5.8-.3 1.2 1.7 3.3 2.5 6.9 2.5 10.6 0 12.8-10.4 23.3-23.2 23.3-9.5 0-18.2-6-21.7-14.9-.2-.6-.9-.8-1.4-.5l-3.2 1.9c-.5.3-.6.9-.3 1.4s.9.6 1.4.3l2.2-1.3c3.1 7.1 9.4 12.3 16.8 14.2v5h-3c-.6 0-1 .4-1 1s.4 1 1 1h18.3c.6 0 1-.4 1-1s-.4-1-1-1h-2.7v-5c10.9-2.8 18.9-12.7 18.9-24.5 0-3.8-.8-7.4-2.4-10.7zm-20.8 41.9h-8.6v-4.6c2.8.5 5.6.5 8.6 0z"/>
        </g>
        <g>
            <path d="m18.7 24.6c.4.3 1.1.3 1.4-.1s.3-1.1-.1-1.4c-4-3.2-4.6-9.1-1.5-13.2.3-.4.3-1.1-.2-1.4-.4-.3-1.1-.3-1.4.2-3.8 4.9-3 12 1.8 15.9z"/>
        </g>
        <g>
            <path d="m16.6 33.6-2.3-1.8 2.4-3.1c1 .7 2.1 1.3 3.2 1.8-2.6 13.1 7.5 25.1 20.5 25.1 11.3 0 20.9-9.2 20.9-21 0-11.6-9.4-20.8-20.5-21-.5-3.9-2.5-7.5-5.7-10.2-6.6-5.4-16.3-4.3-21.6 2.6-5.1 6.5-4.3 15.9 1.7 21.5l-2.4 3.1-2.2-1.8c-.2-.2-.5-.2-.7-.2-.3 0-.5.2-.7.4l-8.1 10.2c-1.7 2.1-1.3 5.3.8 7s5.2 1.4 6.9-.8l8-10.4c.3-.4.3-1.1-.2-1.4zm15.6-3.7c-.1 1.2-.2 2.4-.2 3.6h-10.4c0-.8.1-1.7.3-2.5 3.5 1 7.1.5 10.3-1.1zm8.8-14.2c1.8.6 3.5 3.6 4.6 8h-6.8c1.5-2.5 2.2-5.3 2.2-8zm-3.5 9.9h8.6c.5 2.5.7 5.2.8 7.9h-12.9c0-1.7.1-3.4.3-4.9 1.2-.8 2.3-1.8 3.2-3zm19.7 0c1.3 2.4 2.1 5.1 2.2 7.9h-10.5c-.1-2.7-.3-5.4-.8-7.9zm0 17.9h-9c.4-2.5.7-5.2.8-7.9h10.5c-.3 2.7-1 5.4-2.3 7.9zm-16.7 10c-2.7 0-4.5-5.4-5.2-8.1h10.4c-.7 2.7-2.6 8.1-5.2 8.1zm-5.7-10c-.5-2.5-.7-5.2-.8-7.9h12.9c-.1 2.8-.3 5.4-.8 7.9zm-11.1 0c-1.3-2.4-2.1-5.1-2.2-7.9h10.5c.1 2.7.3 5.4.8 7.9zm1.3 2h8.2c.8 3.3 1.9 5.9 3.2 7.6-4.6-1.1-8.7-3.8-11.4-7.6zm19.6 7.5c1.3-1.7 2.4-4.3 3.2-7.6h8.2c-2.8 3.9-6.9 6.6-11.4 7.6zm11.3-29.4h-8.2c-.8-3.3-1.9-5.9-3.2-7.6 4.6 1.1 8.7 3.8 11.4 7.6zm-40.8-16.4c4.6-6 13.1-6.9 18.8-2.2 5.8 4.7 6.9 13.4 2.1 19.3s-12.9 7.1-18.9 2.2c-5.7-4.7-6.7-13.4-2-19.3zm-8 36.9c-1 1.2-2.8 1.5-4.1.5-1.2-1-1.4-2.9-.4-4.2l7.5-9.6 4.5 3.7z"/>
        </g>
    </g>
</svg>